<svg width="1918" height="117" viewBox="0 0 1918 117" fill="none" xmlns="http://www.w3.org/2000/svg">
<path d="M0.15625 21.25V1.875H92.8125V21.25H58.125V115H34.8438V21.25H0.15625ZM96.1438 115V1.875H119.581V48.75H168.644V1.875H192.238V115H168.644V68.125H119.581V115H96.1438ZM200.1 115V1.875H276.038V21.25H223.538V48.75H272.131V68.125H223.538V95.625H276.194V115H200.1ZM353.95 1.875H377.231V80.7812C377.231 102.734 361.684 116.562 338.95 116.562C318.481 116.562 302.466 105.781 302.544 83.4375H325.981C326.138 92.4219 331.606 97.6562 340.044 97.6562C349.028 97.6562 353.95 91.875 353.95 80.7812V1.875ZM455.094 1.875H478.688V75.3125C478.688 100.078 459.859 116.641 431.812 116.562C403.688 116.641 385.094 100.078 385.094 75.3125V1.875H408.531V73.4375C408.609 86.4844 417.828 95.8594 431.812 95.9375C445.953 95.8594 455.172 86.4844 455.094 73.4375V1.875ZM508.269 1.875L531.394 40.7812H532.175L555.456 1.875H582.019L547.487 58.4375L582.8 115H555.612L532.175 76.0938H531.394L507.956 115H480.925L516.394 58.4375L481.55 1.875H508.269ZM580.662 21.25V1.875H673.319V21.25H638.631V115H615.35V21.25H580.662ZM681.65 115H656.338L695.556 1.875H725.713L764.775 115H739.619L731.103 88.9062H690.166L681.65 115ZM696.103 70.625H725.166L711.025 27.3438H710.244L696.103 70.625ZM766.388 115V1.875H810.763C836.466 1.875 851.231 17.7344 851.231 40C851.231 62.5781 836.231 78.125 810.138 78.125H789.825V115H766.388ZM789.825 59.2188H806.388C820.294 59.2188 827.091 51.4062 827.013 40C827.091 28.75 820.294 21.1719 806.388 21.0938H789.825V59.2188ZM958.469 58.4375C958.469 95.3906 935.578 116.562 905.656 116.562C875.5 116.562 852.688 95.2344 852.688 58.4375C852.688 21.4844 875.5 0.3125 905.656 0.3125C935.578 0.3125 958.469 21.4844 958.469 58.4375ZM876.594 58.4375C876.594 82.5781 888.078 95.7031 905.656 95.7812C923.078 95.7031 934.641 82.5781 934.562 58.4375C934.641 34.2188 923.078 21.1719 905.656 21.0938C888.078 21.1719 876.594 34.2188 876.594 58.4375ZM1025.55 34.2188C1024.61 25.2344 1017.5 20 1006.02 20C994.144 20 987.503 25.4688 987.425 32.9688C987.347 41.1719 995.784 44.8438 1005.55 47.0312L1015.71 49.5312C1035.08 53.9844 1049.53 63.8281 1049.61 82.6562C1049.53 103.359 1033.44 116.641 1005.86 116.562C978.519 116.641 961.097 103.984 960.394 79.6875H983.206C983.987 91.0938 993.05 96.875 1005.55 96.875C1017.89 96.875 1025.86 91.0938 1025.86 82.6562C1025.86 74.9219 1018.83 71.3281 1006.49 68.2812L994.144 65.3125C975.081 60.625 963.362 51.0938 963.362 34.5312C963.284 13.9844 981.409 0.3125 1006.17 0.3125C1031.25 0.3125 1047.74 14.2188 1048.05 34.2188H1025.55ZM1077.16 1.875V115H1053.72V1.875H1077.16ZM1080.65 21.25V1.875H1173.31V21.25H1138.62V115H1115.34V21.25H1080.65ZM1200.07 1.875V115H1176.64V1.875H1200.07ZM1311.53 58.4375C1311.53 95.3906 1288.64 116.562 1258.72 116.562C1228.56 116.562 1205.75 95.2344 1205.75 58.4375C1205.75 21.4844 1228.56 0.3125 1258.72 0.3125C1288.64 0.3125 1311.53 21.4844 1311.53 58.4375ZM1229.66 58.4375C1229.66 82.5781 1241.14 95.7031 1258.72 95.7812C1276.14 95.7031 1287.7 82.5781 1287.62 58.4375C1287.7 34.2188 1276.14 21.1719 1258.72 21.0938C1241.14 21.1719 1229.66 34.2188 1229.66 58.4375ZM1411.58 1.875V115H1391.27L1341.58 43.125H1340.64V115H1317.21V1.875H1337.83L1387.21 73.75H1388.3V1.875H1411.58ZM1548.71 58.4375C1548.71 95.3906 1525.82 116.562 1495.9 116.562C1465.74 116.562 1442.93 95.2344 1442.93 58.4375C1442.93 21.4844 1465.74 0.3125 1495.9 0.3125C1525.82 0.3125 1548.71 21.4844 1548.71 58.4375ZM1466.84 58.4375C1466.84 82.5781 1478.32 95.7031 1495.9 95.7812C1513.32 95.7031 1524.88 82.5781 1524.81 58.4375C1524.88 34.2188 1513.32 21.1719 1495.9 21.0938C1478.32 21.1719 1466.84 34.2188 1466.84 58.4375ZM1554.39 115V1.875H1628.92V21.25H1577.82V48.75H1624.07V68.125H1577.82V115H1554.39ZM1658.86 115V1.875H1682.3V95.625H1731.05V115H1658.86ZM1758.44 1.875V115H1735.01V1.875H1758.44ZM1766.31 115V1.875H1840.84V21.25H1789.74V48.75H1835.99V68.125H1789.74V115H1766.31ZM1845.11 115V1.875H1921.04V21.25H1868.54V48.75H1917.14V68.125H1868.54V95.625H1921.2V115H1845.11Z" fill="#1D1D1D"/>
</svg>
