<svg width="285" height="37" viewBox="0 0 285 37" fill="none" xmlns="http://www.w3.org/2000/svg">
<path d="M66.072 12.912C66.072 9.936 64.392 8.064 60.648 8.064H55.032V17.904H60.648C64.392 17.904 66.072 15.936 66.072 12.912ZM48.312 2.496H60.888C68.952 2.496 72.984 7.152 72.984 12.768C72.984 16.848 70.728 20.976 65.352 22.416L73.368 36H65.592L58.2 22.944H55.032V36H48.312V2.496ZM101.862 22.704C101.862 31.056 95.718 36.432 87.99 36.432C80.31 36.432 74.502 31.056 74.502 22.704C74.502 14.304 80.502 8.976 88.182 8.976C95.862 8.976 101.862 14.304 101.862 22.704ZM81.318 22.704C81.318 27.984 84.39 30.576 87.99 30.576C91.542 30.576 94.95 27.984 94.95 22.704C94.95 17.376 91.638 14.832 88.086 14.832C84.534 14.832 81.318 17.376 81.318 22.704ZM129.015 9.408V36H122.247V32.64C120.567 34.896 117.639 36.336 114.327 36.336C108.135 36.336 103.671 32.304 103.671 25.008V9.408H110.391V24.048C110.391 28.32 112.743 30.624 116.295 30.624C119.943 30.624 122.247 28.32 122.247 24.048V9.408H129.015ZM133.822 27.744V14.928H130.654V9.408H133.822V2.832H140.59V9.408H146.542V14.928H140.59V27.792C140.59 29.568 141.31 30.336 143.422 30.336H146.542V36H142.318C137.23 36 133.822 33.84 133.822 27.744ZM159.919 14.496C156.703 14.496 154.159 16.56 153.631 20.208H166.255C166.159 16.704 163.375 14.496 159.919 14.496ZM172.543 27.648C171.103 32.544 166.687 36.432 160.111 36.432C152.383 36.432 146.767 31.056 146.767 22.704C146.767 14.304 152.239 8.976 160.111 8.976C167.791 8.976 173.215 14.208 173.215 22.128C173.215 22.992 173.167 23.856 173.023 24.72H153.583C153.919 28.656 156.607 30.864 159.967 30.864C162.847 30.864 164.431 29.424 165.295 27.648H172.543ZM181.96 13.296C183.592 10.848 186.712 8.976 190.744 8.976C197.56 8.976 202.888 14.304 202.888 22.608C202.888 30.912 197.56 36.432 190.744 36.432C186.568 36.432 183.592 34.512 181.96 32.208V36H175.24V0.48H181.96V13.296ZM196.024 22.608C196.024 17.568 192.616 14.88 188.968 14.88C185.368 14.88 181.96 17.664 181.96 22.704C181.96 27.744 185.368 30.528 188.968 30.528C192.616 30.528 196.024 27.648 196.024 22.608ZM203.163 22.608C203.163 14.304 208.539 8.976 215.307 8.976C219.579 8.976 222.507 10.992 224.091 13.2V9.408H230.859V36H224.091V32.112C222.507 34.416 219.483 36.432 215.259 36.432C208.539 36.432 203.163 30.912 203.163 22.608ZM224.091 22.704C224.091 17.664 220.731 14.88 217.035 14.88C213.435 14.88 210.027 17.568 210.027 22.608C210.027 27.648 213.435 30.528 217.035 30.528C220.731 30.528 224.091 27.744 224.091 22.704ZM255.183 28.416C255.183 32.976 251.199 36.432 244.719 36.432C238.047 36.432 233.391 32.544 233.103 27.6H239.871C240.111 29.616 241.983 31.152 244.671 31.152C247.311 31.152 248.751 29.952 248.751 28.416C248.751 23.664 233.727 26.688 233.727 16.944C233.727 12.528 237.663 8.976 244.239 8.976C250.671 8.976 254.559 12.48 254.943 17.76H248.511C248.319 15.696 246.687 14.304 244.047 14.304C241.551 14.304 240.255 15.312 240.255 16.848C240.255 21.696 254.991 18.672 255.183 28.416ZM269.243 14.496C266.027 14.496 263.483 16.56 262.955 20.208H275.579C275.483 16.704 272.699 14.496 269.243 14.496ZM281.867 27.648C280.427 32.544 276.011 36.432 269.435 36.432C261.707 36.432 256.091 31.056 256.091 22.704C256.091 14.304 261.563 8.976 269.435 8.976C277.115 8.976 282.539 14.208 282.539 22.128C282.539 22.992 282.491 23.856 282.347 24.72H262.907C263.243 28.656 265.931 30.864 269.291 30.864C272.171 30.864 273.755 29.424 274.619 27.648H281.867Z" fill="#1D1D1D"/>
<rect y="2" width="16" height="34" rx="5" fill="#1D1D1D"/>
<rect x="19" y="2" width="16" height="16" rx="5" fill="#1D1D1D"/>
<rect x="19" y="20" width="16" height="16" rx="5" fill="#00D58D"/>
</svg>
